<svg id="mermaid-1591913390620" width="100%" xmlns="http://www.w3.org/2000/svg" height="100%" viewBox="0 0 721.375 177.15625"><style>#mermaid-1591913390620 .label{font-family:trebuchet ms,verdana,arial;color:#333}#mermaid-1591913390620 .node circle,#mermaid-1591913390620 .node ellipse,#mermaid-1591913390620 .node polygon,#mermaid-1591913390620 .node rect{fill:#ececff;stroke:#9370db;stroke-width:1px}#mermaid-1591913390620 .node.clickable{cursor:pointer}#mermaid-1591913390620 .arrowheadPath{fill:#333}#mermaid-1591913390620 .edgePath .path{stroke:#333;stroke-width:1.5px}#mermaid-1591913390620 .edgeLabel{background-color:#e8e8e8}#mermaid-1591913390620 .cluster rect{fill:#ffffde!important;stroke:#aa3!important;stroke-width:1px!important}#mermaid-1591913390620 .cluster text{fill:#333}#mermaid-1591913390620 div.mermaidTooltip{position:absolute;text-align:center;max-width:200px;padding:2px;font-family:trebuchet ms,verdana,arial;font-size:12px;background:#ffffde;border:1px solid #aa3;border-radius:2px;pointer-events:none;z-index:100}#mermaid-1591913390620 .actor{stroke:#ccf;fill:#ececff}#mermaid-1591913390620 text.actor{fill:#000;stroke:none}#mermaid-1591913390620 .actor-line{stroke:grey}#mermaid-1591913390620 .messageLine0{marker-end:"url(#arrowhead)"}#mermaid-1591913390620 .messageLine0,#mermaid-1591913390620 .messageLine1{stroke-width:1.5;stroke-dasharray:"2 2";stroke:#333}#mermaid-1591913390620 #arrowhead{fill:#333}#mermaid-1591913390620 #crosshead path{fill:#333!important;stroke:#333!important}#mermaid-1591913390620 .messageText{fill:#333;stroke:none}#mermaid-1591913390620 .labelBox{stroke:#ccf;fill:#ececff}#mermaid-1591913390620 .labelText,#mermaid-1591913390620 .loopText{fill:#000;stroke:none}#mermaid-1591913390620 .loopLine{stroke-width:2;stroke-dasharray:"2 2";marker-end:"url(#arrowhead)";stroke:#ccf}#mermaid-1591913390620 .note{stroke:#aa3;fill:#fff5ad}#mermaid-1591913390620 .noteText{fill:#000;stroke:none;font-family:trebuchet ms,verdana,arial;font-size:14px}#mermaid-1591913390620 .section{stroke:none;opacity:.2}#mermaid-1591913390620 .section0{fill:rgba(102,102,255,.49)}#mermaid-1591913390620 .section2{fill:#fff400}#mermaid-1591913390620 .section1,#mermaid-1591913390620 .section3{fill:#fff;opacity:.2}#mermaid-1591913390620 .sectionTitle0,#mermaid-1591913390620 .sectionTitle1,#mermaid-1591913390620 .sectionTitle2,#mermaid-1591913390620 .sectionTitle3{fill:#333}#mermaid-1591913390620 .sectionTitle{text-anchor:start;font-size:11px;text-height:14px}#mermaid-1591913390620 .grid .tick{stroke:#d3d3d3;opacity:.3;shape-rendering:crispEdges}#mermaid-1591913390620 .grid path{stroke-width:0}#mermaid-1591913390620 .today{fill:none;stroke:red;stroke-width:2px}#mermaid-1591913390620 .task{stroke-width:2}#mermaid-1591913390620 .taskText{text-anchor:middle;font-size:11px}#mermaid-1591913390620 .taskTextOutsideRight{fill:#000;text-anchor:start;font-size:11px}#mermaid-1591913390620 .taskTextOutsideLeft{fill:#000;text-anchor:end;font-size:11px}#mermaid-1591913390620 .taskText0,#mermaid-1591913390620 .taskText1,#mermaid-1591913390620 .taskText2,#mermaid-1591913390620 .taskText3{fill:#fff}#mermaid-1591913390620 .task0,#mermaid-1591913390620 .task1,#mermaid-1591913390620 .task2,#mermaid-1591913390620 .task3{fill:#8a90dd;stroke:#534fbc}#mermaid-1591913390620 .taskTextOutside0,#mermaid-1591913390620 .taskTextOutside1,#mermaid-1591913390620 .taskTextOutside2,#mermaid-1591913390620 .taskTextOutside3{fill:#000}#mermaid-1591913390620 .active0,#mermaid-1591913390620 .active1,#mermaid-1591913390620 .active2,#mermaid-1591913390620 .active3{fill:#bfc7ff;stroke:#534fbc}#mermaid-1591913390620 .activeText0,#mermaid-1591913390620 .activeText1,#mermaid-1591913390620 .activeText2,#mermaid-1591913390620 .activeText3{fill:#000!important}#mermaid-1591913390620 .done0,#mermaid-1591913390620 .done1,#mermaid-1591913390620 .done2,#mermaid-1591913390620 .done3{stroke:grey;fill:#d3d3d3;stroke-width:2}#mermaid-1591913390620 .doneText0,#mermaid-1591913390620 .doneText1,#mermaid-1591913390620 .doneText2,#mermaid-1591913390620 .doneText3{fill:#000!important}#mermaid-1591913390620 .crit0,#mermaid-1591913390620 .crit1,#mermaid-1591913390620 .crit2,#mermaid-1591913390620 .crit3{stroke:#f88;fill:red;stroke-width:2}#mermaid-1591913390620 .activeCrit0,#mermaid-1591913390620 .activeCrit1,#mermaid-1591913390620 .activeCrit2,#mermaid-1591913390620 .activeCrit3{stroke:#f88;fill:#bfc7ff;stroke-width:2}#mermaid-1591913390620 .doneCrit0,#mermaid-1591913390620 .doneCrit1,#mermaid-1591913390620 .doneCrit2,#mermaid-1591913390620 .doneCrit3{stroke:#f88;fill:#d3d3d3;stroke-width:2;cursor:pointer;shape-rendering:crispEdges}#mermaid-1591913390620 .activeCritText0,#mermaid-1591913390620 .activeCritText1,#mermaid-1591913390620 .activeCritText2,#mermaid-1591913390620 .activeCritText3,#mermaid-1591913390620 .doneCritText0,#mermaid-1591913390620 .doneCritText1,#mermaid-1591913390620 .doneCritText2,#mermaid-1591913390620 .doneCritText3{fill:#000!important}#mermaid-1591913390620 .titleText{text-anchor:middle;font-size:18px;fill:#000}#mermaid-1591913390620 g.classGroup text{fill:#9370db;stroke:none;font-family:trebuchet ms,verdana,arial;font-size:10px}#mermaid-1591913390620 g.classGroup rect{fill:#ececff;stroke:#9370db}#mermaid-1591913390620 g.classGroup line{stroke:#9370db;stroke-width:1}#mermaid-1591913390620 .classLabel .box{stroke:none;stroke-width:0;fill:#ececff;opacity:.5}#mermaid-1591913390620 .classLabel .label{fill:#9370db;font-size:10px}#mermaid-1591913390620 .relation{stroke:#9370db;stroke-width:1;fill:none}#mermaid-1591913390620 #compositionEnd,#mermaid-1591913390620 #compositionStart{fill:#9370db;stroke:#9370db;stroke-width:1}#mermaid-1591913390620 #aggregationEnd,#mermaid-1591913390620 #aggregationStart{fill:#ececff;stroke:#9370db;stroke-width:1}#mermaid-1591913390620 #dependencyEnd,#mermaid-1591913390620 #dependencyStart,#mermaid-1591913390620 #extensionEnd,#mermaid-1591913390620 #extensionStart{fill:#9370db;stroke:#9370db;stroke-width:1}#mermaid-1591913390620 .branch-label,#mermaid-1591913390620 .commit-id,#mermaid-1591913390620 .commit-msg{fill:#d3d3d3;color:#d3d3d3}</style><style>#mermaid-1591913390620 {
    color: rgb(0, 0, 0);
    font: normal normal 400 normal 16px / normal "Times New Roman";
  }</style><g></g><defs><marker id="extensionStart" class="extension" refX="0" refY="7" markerWidth="190" markerHeight="240" orient="auto"><path d="M 1,7 L18,13 V 1 Z"></path></marker></defs><defs><marker id="extensionEnd" refX="19" refY="7" markerWidth="20" markerHeight="28" orient="auto"><path d="M 1,1 V 13 L18,7 Z"></path></marker></defs><defs><marker id="compositionStart" class="extension" refX="0" refY="7" markerWidth="190" markerHeight="240" orient="auto"><path d="M 18,7 L9,13 L1,7 L9,1 Z"></path></marker></defs><defs><marker id="compositionEnd" refX="19" refY="7" markerWidth="20" markerHeight="28" orient="auto"><path d="M 18,7 L9,13 L1,7 L9,1 Z"></path></marker></defs><defs><marker id="aggregationStart" class="extension" refX="0" refY="7" markerWidth="190" markerHeight="240" orient="auto"><path d="M 18,7 L9,13 L1,7 L9,1 Z"></path></marker></defs><defs><marker id="aggregationEnd" refX="19" refY="7" markerWidth="20" markerHeight="28" orient="auto"><path d="M 18,7 L9,13 L1,7 L9,1 Z"></path></marker></defs><defs><marker id="dependencyStart" class="extension" refX="0" refY="7" markerWidth="190" markerHeight="240" orient="auto"><path d="M 5,7 L9,13 L1,7 L9,1 Z"></path></marker></defs><defs><marker id="dependencyEnd" refX="19" refY="7" markerWidth="20" markerHeight="28" orient="auto"><path d="M 18,7 L9,13 L14,7 L9,1 Z"></path></marker></defs><g id="classId0" class="classGroup" transform="translate(291.97265625,0 )"><rect x="0" y="0" width="84.28125" height="77.15625"></rect><text x="5" y="15">GraphContent</text><line x1="0" y1="21.0625" y2="21.0625" x2="84.28125"></line><text x="5" y="31.0625" fill="white" class="classText"></text><line x1="0" y1="26.0625" y2="26.0625" x2="84.28125"></line><text x="5" y="41.0625" fill="white" class="classText"><tspan x="5">+load(graph)</tspan><tspan x="5" dy="10">+unload(graph)</tspan><tspan x="5" dy="10">+resize(graph)</tspan><tspan x="5" dy="10">+redraw(graph)</tspan></text></g><g id="classId1" class="classGroup" transform="translate(0,127.15625 )"><rect x="0" y="0" width="29.8125" height="30"></rect><text x="5" y="15">Bar</text><line x1="0" y1="21" y2="21" x2="29.8125"></line><text x="5" y="31" fill="white" class="classText"></text><line x1="0" y1="26" y2="26" x2="29.8125"></line><text x="5" y="41" fill="white" class="classText"></text></g><g id="classId2" class="classGroup" transform="translate(79.8125,127.15625 )"><rect x="0" y="0" width="45.671875" height="30"></rect><text x="5" y="15">Bubble</text><line x1="0" y1="21" y2="21" x2="45.671875"></line><text x="5" y="31" fill="white" class="classText"></text><line x1="0" y1="26" y2="26" x2="45.671875"></line><text x="5" y="41" fill="white" class="classText"></text></g><g id="classId3" class="classGroup" transform="translate(175.484375,127.15625 )"><rect x="0" y="0" width="40.421875" height="30"></rect><text x="5" y="15">Gantt</text><line x1="0" y1="21" y2="21" x2="40.421875"></line><text x="5" y="31" fill="white" class="classText"></text><line x1="0" y1="26" y2="26" x2="40.421875"></line><text x="5" y="41" fill="white" class="classText"></text></g><g id="classId4" class="classGroup" transform="translate(265.90625,127.15625 )"><rect x="0" y="0" width="33.84375" height="30"></rect><text x="5" y="15">Line</text><line x1="0" y1="21" y2="21" x2="33.84375"></line><text x="5" y="31" fill="white" class="classText"></text><line x1="0" y1="26" y2="26" x2="33.84375"></line><text x="5" y="41" fill="white" class="classText"></text></g><g id="classId5" class="classGroup" transform="translate(349.75,127.15625 )"><rect x="0" y="0" width="71.296875" height="30"></rect><text x="5" y="15">PairedResult</text><line x1="0" y1="21" y2="21" x2="71.296875"></line><text x="5" y="31" fill="white" class="classText"></text><line x1="0" y1="26" y2="26" x2="71.296875"></line><text x="5" y="41" fill="white" class="classText"></text></g><g id="classId6" class="classGroup" transform="translate(471.046875,127.15625 )"><rect x="0" y="0" width="28.890625" height="30"></rect><text x="5" y="15">Pie</text><line x1="0" y1="21" y2="21" x2="28.890625"></line><text x="5" y="31" fill="white" class="classText"></text><line x1="0" y1="26" y2="26" x2="28.890625"></line><text x="5" y="41" fill="white" class="classText"></text></g><g id="classId7" class="classGroup" transform="translate(549.9375,127.15625 )"><rect x="0" y="0" width="47.296875" height="30"></rect><text x="5" y="15">Scatter</text><line x1="0" y1="21" y2="21" x2="47.296875"></line><text x="5" y="31" fill="white" class="classText"></text><line x1="0" y1="26" y2="26" x2="47.296875"></line><text x="5" y="41" fill="white" class="classText"></text></g><g id="classId8" class="classGroup" transform="translate(647.234375,127.15625 )"><rect x="0" y="0" width="54.140625" height="30"></rect><text x="5" y="15">Timeline</text><line x1="0" y1="21" y2="21" x2="54.140625"></line><text x="5" y="31" fill="white" class="classText"></text><line x1="0" y1="26" y2="26" x2="54.140625"></line><text x="5" y="41" fill="white" class="classText"></text></g><path d="M291.97265625,46.971492506149275L245.794921875,56.16895208845773C199.6171875,65.36641167076618,107.26171875,83.76133083538309,61.083984375,97.12545708435822C14.90625,110.48958333333333,14.90625,118.82291666666667,14.90625,122.98958333333333L14.90625,127.15625" id="edge0" class="relation" marker-start="url(#extensionStart)"></path><path d="M291.97265625,50.153195669141844L260.4186197916667,58.82037139095153C228.86458333333334,67.48754711276122,165.75651041666666,84.82189855638062,134.20247395833334,97.65574094485697C102.6484375,110.48958333333333,102.6484375,118.82291666666667,102.6484375,122.98958333333333L102.6484375,127.15625" id="edge1" class="relation" marker-start="url(#extensionStart)"></path><path d="M291.97265625,57.93415188020319L275.9264322916667,65.304501566836C259.8802083333333,72.67485125346879,227.78776041666666,87.4155506267344,211.74153645833334,98.95256698003386C195.6953125,110.48958333333333,195.6953125,118.82291666666667,195.6953125,122.98958333333333L195.6953125,127.15625" id="edge2" class="relation" marker-start="url(#extensionStart)"></path><path d="M302.9943206254608,77.15625L299.6332880212173,81.32291666666667C296.27225541697385,85.48958333333333,289.5501902084869,93.82291666666667,286.18915760424346,102.15625C282.828125,110.48958333333333,282.828125,118.82291666666667,282.828125,122.98958333333333L282.828125,127.15625" id="edge3" class="relation" marker-start="url(#extensionStart)"></path><path d="M365.2322418745392,77.15625L368.5932744787827,81.32291666666667C371.95430708302615,85.48958333333333,378.67637229151313,93.82291666666667,382.03740489575654,102.15625C385.3984375,110.48958333333333,385.3984375,118.82291666666667,385.3984375,122.98958333333333L385.3984375,127.15625" id="edge4" class="relation" marker-start="url(#extensionStart)"></path><path d="M376.25390625,56.276904771888624L394.4602864583333,63.92346230990719C412.6666666666667,71.57001984792575,449.0794270833333,86.86313492396287,467.2858072916667,98.67635912864812C485.4921875,110.48958333333333,485.4921875,118.82291666666667,485.4921875,122.98958333333333L485.4921875,127.15625" id="edge5" class="relation" marker-start="url(#extensionStart)"></path><path d="M376.25390625,49.76613270736482L409.142578125,58.497818922804015C442.03125,67.22950513824321,507.80859375,84.6928775691216,540.697265625,97.59123045122747C573.5859375,110.48958333333333,573.5859375,118.82291666666667,573.5859375,122.98958333333333L573.5859375,127.15625" id="edge6" class="relation" marker-start="url(#extensionStart)"></path><path d="M376.25390625,46.45375582019543L425.9290364583333,55.73750485016286C475.6041666666667,65.02125388013029,574.9544270833334,83.58875194006514,624.6295572916666,97.03916763669925C674.3046875,110.48958333333333,674.3046875,118.82291666666667,674.3046875,122.98958333333333L674.3046875,127.15625" id="edge7" class="relation" marker-start="url(#extensionStart)"></path></svg>