<?xml version="1.0" encoding="utf-8"?>
<!-- Generator: Adobe Illustrator 22.0.0, SVG Export Plug-In . SVG Version: 6.00 Build 0)  -->
<svg version="1.1" xmlns="http://www.w3.org/2000/svg" xmlns:xlink="http://www.w3.org/1999/xlink" x="0px" y="0px"
	 viewBox="0 0 100 100" style="enable-background:new 0 0 100 100;" xml:space="preserve">
<style type="text/css">
	.st0{fill:#80C7EE;}
	.st1{fill:#047CC0;}
	.st2{fill:#F1F1F2;stroke:url(#SVGID_1_);stroke-width:18;stroke-miterlimit:10;}
	.st3{fill:#F1F1F2;stroke:url(#SVGID_2_);stroke-width:18;stroke-miterlimit:10;}
	.st4{fill:#F1F1F2;stroke:url(#SVGID_3_);stroke-width:18;stroke-miterlimit:10;}
	.st5{fill:#F1F1F2;stroke:url(#SVGID_4_);stroke-width:18;stroke-miterlimit:10;}
	.st6{fill:#F1F1F2;stroke:url(#SVGID_5_);stroke-width:18;stroke-miterlimit:10;}
	.st7{fill:#F1F1F2;stroke:url(#SVGID_6_);stroke-width:18;stroke-miterlimit:10;}
	.st8{fill:#F1F1F2;stroke:url(#SVGID_7_);stroke-width:18;stroke-miterlimit:10;}
	.st9{fill:#F1F1F2;stroke:url(#SVGID_8_);stroke-width:18;stroke-miterlimit:10;}
	.st10{fill:#F1F1F2;stroke:url(#SVGID_9_);stroke-width:18;stroke-miterlimit:10;}
	.st11{fill:#FAAF66;}
	.st12{fill:#EB6124;}
	.st13{fill:#F1F1F2;stroke:#EB6124;stroke-width:18;stroke-linecap:square;stroke-miterlimit:10;}
	.st14{fill:#BB86BB;}
	.st15{fill:#F1F1F2;stroke:#782B8B;stroke-width:18;stroke-miterlimit:10;}
	.st16{fill:#782B8B;}
	.st17{fill:#F1F1F2;}
	.st18{fill:#F05B62;}
	.st19{fill:#A91E23;}
	.st20{fill:#F1F1F2;stroke:#A91E23;stroke-width:18;stroke-linecap:round;stroke-linejoin:round;stroke-miterlimit:10;}
	.st21{fill:none;stroke:#A91E23;stroke-width:18.7984;stroke-linecap:round;stroke-miterlimit:10;}
	.st22{fill:#A4D183;}
	.st23{fill:#5C9A43;}
	.st24{fill:#F1F1F2;stroke:url(#SVGID_10_);stroke-width:18;stroke-miterlimit:10;}
	.st25{fill:none;stroke:#231F20;stroke-width:9.2291;stroke-miterlimit:10;}
	.st26{fill:url(#SVGID_11_);}
	.st27{fill:url(#SVGID_12_);}
	.st28{fill:none;}
	.st29{fill:#F1F1F2;stroke:url(#SVGID_13_);stroke-width:18;stroke-miterlimit:10;}
	.st30{fill:url(#SVGID_14_);}
	.Graphic_x0020_Style{fill:#F1F1F2;stroke:#EB6124;stroke-width:18;stroke-linecap:square;stroke-miterlimit:10;}
	.st31{display:none;}
	.st32{display:inline;}
	.st33{fill:#8FA2B0;}
	.st34{fill:#5B6770;}
	.st35{fill:#F1F1F2;stroke:#5B6770;stroke-width:18;stroke-miterlimit:10;}
	.st36{fill:#F1F1F2;stroke:#5B6770;stroke-width:17.9365;stroke-miterlimit:10;}
	.st37{fill:#F1F1F2;stroke:#5B6770;stroke-width:17.9375;stroke-miterlimit:10;}
	.st38{fill:none;stroke:#5B6770;stroke-width:18;stroke-miterlimit:10;}
	.st39{fill:#F1F1F2;stroke:#5B6770;stroke-width:1.764;stroke-miterlimit:10;}
	.st40{fill:#F1F1F2;stroke:#5B6770;stroke-width:1.7578;stroke-miterlimit:10;}
	.st41{fill:#F1F1F2;stroke:#5B6770;stroke-width:1.7579;stroke-miterlimit:10;}
	.st42{fill:none;stroke:#5B6770;stroke-width:1.764;stroke-miterlimit:10;}
	.st43{fill:#F1F1F2;stroke:#EB6124;stroke-width:18;stroke-miterlimit:10;}
	.st44{fill:none;stroke:#EB6124;stroke-width:18;stroke-miterlimit:10;}
	.st45{fill:none;stroke:#EB6124;stroke-width:18;stroke-miterlimit:10;stroke-dasharray:82.7773,27.5924;}
	.st46{fill:none;stroke:#EB6124;stroke-width:18;stroke-miterlimit:10;stroke-dasharray:68.2487,22.7496;}
	.st47{fill:#F1F1F2;stroke:url(#SVGID_15_);stroke-width:18;stroke-miterlimit:10;}
	.st48{fill:url(#SVGID_16_);}
	.st49{fill:url(#SVGID_17_);}
	.st50{fill:#F1F1F2;stroke:url(#SVGID_18_);stroke-width:18;stroke-miterlimit:10;}
	.st51{fill:url(#SVGID_19_);}
	.st52{fill:#F1F1F2;stroke:#A91E23;stroke-width:14.0021;stroke-linecap:round;stroke-linejoin:round;stroke-miterlimit:10;}
	.st53{fill:none;stroke:#A91E23;stroke-width:18;stroke-linecap:round;stroke-miterlimit:10;}
	.st54{fill:#F1F1F2;stroke:url(#SVGID_20_);stroke-width:18;stroke-miterlimit:10;}
	.st55{fill:#F1F1F2;stroke:#5C9A43;stroke-width:18;stroke-linecap:round;stroke-linejoin:round;stroke-miterlimit:10;}
	.st56{fill:#F1F1F2;stroke:url(#SVGID_21_);stroke-width:18;stroke-miterlimit:10;}
	.st57{fill:url(#SVGID_22_);}
	.st58{fill:url(#SVGID_23_);}
	.st59{fill:#F1F1F2;stroke:url(#SVGID_24_);stroke-width:18;stroke-miterlimit:10;}
	.st60{fill:url(#SVGID_25_);}
	.st61{fill:#F1F1F2;stroke:url(#SVGID_26_);stroke-width:18;stroke-miterlimit:10;}
	.st62{fill:#F1F1F2;stroke:#5B6770;stroke-width:18;stroke-linecap:round;stroke-linejoin:round;stroke-miterlimit:10;}
	.st63{fill:#EDFF00;}
</style>
<symbol  id="Beadledom_1_" viewBox="0 -1000 890 1000">
	<path class="st0" d="M445-981c-12,0-23.8,3.2-34.1,9.1L53.2-765.5C32.1-753.3,19-730.7,19-706.4v412.8c0,24.3,13.1,46.9,34.1,59.1
		L410.9-28.2c10.4,6,22.2,9.1,34.1,9.1c12,0,23.8-3.2,34.1-9.1l357.7-206.4c21.1-12.1,34.1-34.8,34.1-59.1v-412.8
		c0-24.3-13.1-46.9-34.1-59.1L479.1-971.8C468.8-977.8,457-981,445-981z"/>
	<path class="st1" d="M445-38c8.5,0,17-2.2,24.6-6.6L827.3-251c15.2-8.8,24.6-25,24.6-42.6v-412.8c0-17.6-9.4-33.8-24.6-42.6
		L469.6-955.4c-7.6-4.4-16.1-6.6-24.6-6.6c-8.5,0-17,2.2-24.6,6.6L62.7-749C47.4-740.2,38-724,38-706.4v412.8
		c0,17.6,9.4,33.8,24.6,42.6L420.4-44.6C428-40.2,436.5-38,445-38 M445,0c-15.3,0-30.4-4-43.6-11.7L43.6-218.1
		C16.7-233.6,0-262.5,0-293.6v-412.8c0-31.1,16.7-60,43.6-75.5l357.7-206.4c13.3-7.6,28.3-11.7,43.6-11.7c15.3,0,30.4,4,43.6,11.7
		l357.7,206.4c26.9,15.5,43.6,44.5,43.6,75.5v412.8c0,31.1-16.7,60-43.6,75.5L488.6-11.7C475.4-4,460.3,0,445,0L445,0z"/>
	<g>
		
			<pattern  id="SVGID_1_" xlink:href="#New_Pattern_Swatch_3" patternTransform="matrix(2.8093 -1.6684 0.9445 1.5904 21911.5801 -8299.0635)">
		</pattern>
		<circle class="st2" cx="584.4" cy="-720.1" r="48.8"/>
		
			<pattern  id="SVGID_2_" xlink:href="#New_Pattern_Swatch_3" patternTransform="matrix(1.3217 -0.7849 3.9696 6.684 35593.1367 40906.0234)">
		</pattern>
		<polygon class="st3" points="479.2,-499.4 441,-522 355.7,-378.4 393.9,-355.8 		"/>
		
			<pattern  id="SVGID_3_" xlink:href="#New_Pattern_Swatch_3" patternTransform="matrix(1.8147 -1.0777 4.1799 7.038 41179.7227 41655.543)">
		</pattern>
		<polygon class="st4" points="589.9,-669.7 537.5,-700.8 447.7,-549.6 500.1,-518.5 		"/>
		
			<pattern  id="SVGID_4_" xlink:href="#New_Pattern_Swatch_3" patternTransform="matrix(2.8093 -1.6684 0.9445 1.5904 21909.5508 -8301.375)">
		</pattern>
		<polygon class="st5" points="519.7,-518.6 438.5,-566.8 418.2,-532.6 499.4,-484.5 		"/>
		<g>
			
				<pattern  id="SVGID_5_" xlink:href="#New_Pattern_Swatch_3" patternTransform="matrix(1.7598 -1.0452 2.6416 4.4478 27895.9824 20356.1191)">
			</pattern>
			<polygon class="st6" points="324.6,-404.8 283.3,-429.3 221.3,-324.9 262.6,-300.4 			"/>
			
				<pattern  id="SVGID_6_" xlink:href="#New_Pattern_Swatch_3" patternTransform="matrix(1.7598 -1.0452 2.6416 4.4478 27906.4102 20349.9258)">
			</pattern>
			<polygon class="st7" points="473.6,-316.3 432.3,-340.8 370.3,-236.4 411.6,-211.9 			"/>
			
				<pattern  id="SVGID_7_" xlink:href="#New_Pattern_Swatch_3" patternTransform="matrix(5.3531 -3.1792 3.177 5.3494 60136.207 11358.79)">
			</pattern>
			<polygon class="st8" points="447.3,-346.2 321.7,-420.7 247.2,-295.2 372.7,-220.7 			"/>
			
				<pattern  id="SVGID_8_" xlink:href="#New_Pattern_Swatch_3" patternTransform="matrix(1.4587 -0.8663 3.9696 6.684 36645.6992 40280.9062)">
			</pattern>
			<path class="st9" d="M292.2-459.5l-5.9-3.5c-7.8-4.6-17.9-2.1-22.6,5.8l-76.3,128.5c-4.6,7.8-2.1,17.9,5.8,22.6l5.9,3.5
				c7.8,4.6,17.9,2.1,22.6-5.8l76.3-128.5C302.6-444.7,300-454.8,292.2-459.5z"/>
			
				<pattern  id="SVGID_9_" xlink:href="#New_Pattern_Swatch_3" patternTransform="matrix(1.4587 -0.8663 3.9696 6.684 36651.5938 40277.4062)">
			</pattern>
			<path class="st10" d="M501.3-335.3l-5.9-3.5c-7.8-4.6-17.9-2.1-22.6,5.8l-76.3,128.5c-4.6,7.8-2.1,17.9,5.8,22.6l5.9,3.5
				c7.8,4.6,17.9,2.1,22.6-5.8l76.3-128.5C511.7-320.5,509.2-330.6,501.3-335.3z"/>
		</g>
	</g>
</symbol>
<symbol  id="Bunson" viewBox="0 -1000 890 1000">
	<g>
		<g>
			<g>
				<path class="st11" d="M445-981c-12,0-23.8,3.2-34.1,9.1L53.2-765.5C32.1-753.3,19-730.7,19-706.4v412.8
					c0,24.3,13.1,46.9,34.1,59.1L410.9-28.2c10.4,6,22.2,9.1,34.1,9.1c12,0,23.8-3.2,34.1-9.1l357.7-206.4
					c21.1-12.1,34.1-34.8,34.1-59.1v-412.8c0-24.3-13.1-46.9-34.1-59.1L479.1-971.8C468.8-977.8,457-981,445-981z"/>
				<path class="st12" d="M445-38c8.5,0,17-2.2,24.6-6.6L827.3-251c15.2-8.8,24.6-25,24.6-42.6v-412.8c0-17.6-9.4-33.8-24.6-42.6
					L469.6-955.4c-7.6-4.4-16.1-6.6-24.6-6.6c-8.5,0-17,2.2-24.6,6.6L62.7-749C47.4-740.2,38-724,38-706.4v412.8
					c0,17.6,9.4,33.8,24.6,42.6L420.4-44.6C428-40.2,436.5-38,445-38 M445,0c-15.3,0-30.4-4-43.6-11.7L43.6-218.1
					C16.7-233.6,0-262.5,0-293.6v-412.8c0-31.1,16.7-60,43.6-75.5l357.7-206.4c13.3-7.6,28.3-11.7,43.6-11.7
					c15.3,0,30.4,4,43.6,11.7l357.7,206.4c26.9,15.5,43.6,44.5,43.6,75.5v412.8c0,31.1-16.7,60-43.6,75.5L488.6-11.7
					C475.4-4,460.3,0,445,0L445,0z"/>
			</g>
		</g>
	</g>
	<path class="Graphic_x0020_Style" d="M445-167.6c0,0-124.6-297.3-124.6-444.4c0-89.6,30.7-179.4,74.7-219.7
		c-10.2,23.2-16.4,52.5-16.4,81.8c0,78.2,66.2,236.2,66.2,236.2s66.2-163,66.2-236.2c0-30.6-6-59.8-16-82.5
		c43.8,38.8,74.4,125.9,74.4,220.5C569.6-474.3,445-167.6,445-167.6z"/>
</symbol>
<symbol  id="Canadarm_1_" viewBox="0 -1000 890 1000">
	<path class="st14" d="M445-981c-12,0-23.8,3.2-34.1,9.1L53.2-765.5C32.1-753.3,19-730.7,19-706.4v412.8c0,24.3,13.1,46.9,34.1,59.1
		L410.9-28.2c10.4,6,22.2,9.1,34.1,9.1c12,0,23.8-3.2,34.1-9.1l357.7-206.4c21.1-12.1,34.1-34.8,34.1-59.1v-412.8
		c0-24.3-13.1-46.9-34.1-59.1L479.1-971.8C468.8-977.8,457-981,445-981z"/>
	<g>
		<polygon class="st15" points="757.2,-807.6 419.4,-596.5 419.4,-596.5 332.7,-736.8 595.4,-900.9 		"/>
		<path class="st15" d="M649.5-290l9.5-40.8c5.2-22.6-8.9-45.2-31.5-50.4l-127.3-29.4L470.9-284c-5.2,22.6,8.9,45.2,31.5,50.4
			l40.9,9.5c15.4,3.6,25,19,21.5,34.4l0,0c-3.6,15.4-19,25-34.4,21.5l-40.4-9.4c-26.6-6.1-49.7-22.4-64.4-45.3l0,0
			c-15.1-23.5-20.1-52-14-79.3l15.6-69.4l140.8-87.5l67.9,16.2c13.8,3.3,27.1,8.9,38.5,17.3c35.1,25.8,49.6,68.5,40.4,108.1
			l-9.4,40.4c-3.6,15.4-19,25-34.4,21.5l0,0C655.5-259.2,645.9-274.6,649.5-290z"/>
		<polygon class="st15" points="427.7,-372.5 253.1,-651.5 253.1,-651.5 393.5,-738.1 568.3,-458.9 		"/>
		<ellipse class="st15" cx="349" cy="-651.4" rx="114.9" ry="114.9"/>
		<ellipse class="st15" cx="349" cy="-651.4" rx="55.9" ry="55.8"/>
		<path class="st15" d="M376.4-340.5L376.4-340.5c-12.2-19.4-6.3-45.1,13.2-57.1l173.9-107.8c19.4-12,44.8-6.1,57,13.1l0,0
			c12.3,19.5,6.3,45.2-13.3,57.3l-174,107.6C413.8-315.5,388.5-321.3,376.4-340.5z"/>
	</g>
	<path class="st16" d="M445-38c8.5,0,17-2.2,24.6-6.6L827.3-251c15.2-8.8,24.6-25,24.6-42.6v-412.8c0-17.6-9.4-33.8-24.6-42.6
		L469.6-955.4c-7.6-4.4-16.1-6.6-24.6-6.6c-8.5,0-17,2.2-24.6,6.6L62.7-749C47.4-740.2,38-724,38-706.4v412.8
		c0,17.6,9.4,33.8,24.6,42.6L420.4-44.6C428-40.2,436.5-38,445-38 M445,0c-15.3,0-30.4-4-43.6-11.7L43.6-218.1
		C16.7-233.6,0-262.5,0-293.6v-412.8c0-31.1,16.7-60,43.6-75.5l357.7-206.4c13.3-7.6,28.3-11.7,43.6-11.7c15.3,0,30.4,4,43.6,11.7
		l357.7,206.4c26.9,15.5,43.6,44.5,43.6,75.5v412.8c0,31.1-16.7,60-43.6,75.5L488.6-11.7C475.4-4,460.3,0,445,0L445,0z"/>
</symbol>
<symbol  id="Clara_1_" viewBox="0 -1000 890 1000">
	<g>
		<path class="st0" d="M445-981c-12,0-23.8,3.2-34.1,9.1L53.2-765.5C32.1-753.3,19-730.7,19-706.4v412.8c0,24.3,13.1,46.9,34.1,59.1
			L410.9-28.2c10.4,6,22.2,9.1,34.1,9.1c12,0,23.8-3.2,34.1-9.1l357.7-206.4c21.1-12.1,34.1-34.8,34.1-59.1v-412.8
			c0-24.3-13.1-46.9-34.1-59.1L479.1-971.8C468.8-977.8,457-981,445-981z"/>
		<path class="st1" d="M445-38c8.5,0,17-2.2,24.6-6.6L827.3-251c15.2-8.8,24.6-25,24.6-42.6v-412.8c0-17.6-9.4-33.8-24.6-42.6
			L469.6-955.4c-7.6-4.4-16.1-6.6-24.6-6.6c-8.5,0-17,2.2-24.6,6.6L62.7-749C47.4-740.2,38-724,38-706.4v412.8
			c0,17.6,9.4,33.8,24.6,42.6L420.4-44.6C428-40.2,436.5-38,445-38 M445,0c-15.3,0-30.4-4-43.6-11.7L43.6-218.1
			C16.7-233.6,0-262.5,0-293.6v-412.8c0-31.1,16.7-60,43.6-75.5l357.7-206.4c13.3-7.6,28.3-11.7,43.6-11.7c15.3,0,30.4,4,43.6,11.7
			l357.7,206.4c26.9,15.5,43.6,44.5,43.6,75.5v412.8c0,31.1-16.7,60-43.6,75.5L488.6-11.7C475.4-4,460.3,0,445,0L445,0z"/>
	</g>
	<g>
		<g>
			<g>
				<path class="st17" d="M201.1-661.7c-3,0-5.8,1.3-7.7,3.6c-8.1,9.7-15.6,19.7-22.2,30c-6.8,10.5-12.7,22-17.6,34
					c-4.6,11.3-8.3,24.1-10.9,37.8c-2.6,13.7-3.9,28.1-3.9,42.9c0,16.1,1.4,31,4.1,44.1c2.7,13.1,6.2,25.3,10.6,36.2
					c4.7,11.9,10.6,23.3,17.4,33.9c6.6,10.3,14.2,20.5,22.5,30.4c1.9,2.3,4.7,3.6,7.7,3.6h50.5c5.5,0,10-4.5,10-10v-2.7
					c0-2.8-1.2-5.5-3.3-7.4c-7.1-6.5-14-13.9-20.5-22.1c-6.5-8.2-12.7-18-18.3-29.1c-5.3-10.6-9.7-22.5-13.1-35.5
					c-3.3-12.9-5-26.8-5-41.5c0-15.3,1.6-29.3,4.9-41.6c3.3-12.5,7.7-24.4,13.3-35.5c5.3-10.5,11.5-20.2,18.2-28.8
					c6.7-8.5,13.6-16,20.6-22.2c2.1-1.9,3.3-4.6,3.3-7.4v-2.7c0-5.5-4.5-10-10-10H201.1z"/>
				<path class="st1" d="M251.6-374.2c0.6,0,1-0.4,1-1v-2.7c0-0.3-0.1-0.5-0.3-0.7c-7.5-6.8-14.7-14.5-21.5-23.1
					c-6.9-8.7-13.4-18.9-19.3-30.6c-5.7-11.2-10.3-23.7-13.8-37.4c-3.5-13.7-5.3-28.3-5.3-43.7c0-16.1,1.7-30.8,5.2-43.9
					c3.4-13.1,8.1-25.5,13.9-37.2c5.7-11.1,12.1-21.3,19.2-30.4c7-9,14.2-16.8,21.7-23.4c0.2-0.2,0.3-0.5,0.3-0.7v-2.7
					c0-0.6-0.4-1-1-1h-50.5c-0.3,0-0.6,0.1-0.8,0.4c-7.9,9.4-15.1,19.1-21.5,29.1c-6.5,10.1-12.1,20.9-16.8,32.6
					c-4.4,10.9-7.9,22.9-10.4,36.1c-2.5,13.2-3.8,26.9-3.8,41.2c0,15.6,1.3,29.7,3.9,42.3c2.6,12.6,6,24.2,10.1,34.7
					c4.5,11.4,10.1,22.2,16.6,32.3c6.5,10,13.8,19.9,21.8,29.6c0.2,0.2,0.5,0.4,0.8,0.4H251.6 M251.6-356.2h-50.5
					c-5.6,0-11-2.5-14.6-6.8c-8.5-10.2-16.3-20.8-23.2-31.3c-7.2-11.1-13.3-23-18.2-35.5c-4.5-11.4-8.2-24.1-11-37.7
					c-2.8-13.8-4.3-29.2-4.3-45.9c0-15.3,1.4-30.3,4.1-44.5c2.7-14.3,6.6-27.6,11.4-39.6c5.1-12.5,11.3-24.5,18.4-35.5
					c6.8-10.6,14.5-20.9,22.8-30.9c3.6-4.3,8.9-6.8,14.6-6.8h50.5c10.5,0,19,8.5,19,19v2.7c0,5.4-2.3,10.6-6.3,14.2
					c-6.6,5.9-13.2,13-19.5,21.1c-6.4,8.1-12.2,17.3-17.3,27.4c-5.3,10.5-9.5,21.8-12.6,33.7c-3,11.6-4.6,24.8-4.6,39.3
					c0,13.9,1.6,27.1,4.7,39.2c3.2,12.4,7.4,23.7,12.4,33.7c5.4,10.6,11.2,19.9,17.4,27.6c6.2,7.8,12.8,14.9,19.5,21
					c4,3.6,6.2,8.7,6.2,14.1v2.7C270.6-364.7,262.1-356.2,251.6-356.2L251.6-356.2z"/>
			</g>
			<g>
				<path class="st17" d="M280.5-530.1c-5.5,0-10,4.5-10,10v37.3c0,5.5,4.5,10,10,10h91.8c5.5,0,10-4.5,10-10v-37.3
					c0-5.5-4.5-10-10-10H280.5z"/>
				<path class="st1" d="M372.3-481.8c0.6,0,1-0.4,1-1v-37.3c0-0.6-0.4-1-1-1h-91.8c-0.6,0-1,0.4-1,1v37.3c0,0.6,0.4,1,1,1H372.3
					 M372.3-463.8h-91.8c-10.5,0-19-8.5-19-19v-37.3c0-10.5,8.5-19,19-19h91.8c10.5,0,19,8.5,19,19v37.3
					C391.3-472.3,382.8-463.8,372.3-463.8L372.3-463.8z"/>
			</g>
			<g>
				<path class="st17" d="M419.7-600.9c-5.5,0-10,4.5-10,10v36.9c0,4.1,2.4,7.7,6.2,9.3l106.2,43.4L416-458.1
					c-3.8,1.5-6.2,5.2-6.2,9.3v36.9c0,5.5,4.5,10,10,10c1.3,0,2.6-0.3,3.8-0.8l179.7-74.6c3.7-1.6,6.2-5.2,6.2-9.2v-29.8
					c0-4.1-2.4-7.7-6.2-9.2l-179.7-74.6C422.4-600.7,421.1-600.9,419.7-600.9z"/>
				<path class="st1" d="M419.7-410.9c0.1,0,0.3,0,0.4-0.1l179.7-74.6c0.4-0.2,0.6-0.5,0.6-0.9v-29.8c0-0.4-0.2-0.8-0.6-0.9
					l-179.7-74.6c-0.1-0.1-0.3-0.1-0.4-0.1c-0.5,0-1,0.4-1,1v36.9c0,0.4,0.2,0.8,0.6,0.9l124.3,50.8c0.8,0.3,0.8,1.5,0,1.9
					l-124.3,50.8c-0.4,0.2-0.6,0.5-0.6,0.9v36.9C418.7-411.3,419.2-410.9,419.7-410.9 M419.7-392.9c-10.5,0-19-8.5-19-19v-36.9
					c0-7.8,4.6-14.7,11.8-17.6l85.8-35l-85.8-35c-7.2-2.9-11.8-9.8-11.8-17.6v-36.9c0-10.5,8.5-19,19-19c2.5,0,5,0.5,7.3,1.5
					l179.7,74.6c7.1,3,11.7,9.8,11.7,17.5v29.8c0,7.7-4.6,14.6-11.7,17.6L427-394.4C424.7-393.4,422.3-392.9,419.7-392.9
					L419.7-392.9z"/>
			</g>
			<g>
				<path class="st17" d="M638.3-661.7c-5.5,0-10,4.5-10,10v2.7c0,2.8,1.2,5.6,3.3,7.5c7,6.3,14,13.7,20.7,22.2
					c6.7,8.5,12.8,18.2,18.1,28.8c5.6,11.1,10,23,13.3,35.5c3.2,12.3,4.9,26.3,4.9,41.6c0,14.6-1.7,28.6-5,41.5
					c-3.4,13-7.8,25-13.1,35.6c-5.6,11.1-11.8,20.9-18.3,29.1c-6.5,8.2-13.4,15.6-20.5,22.1c-2.1,1.9-3.3,4.6-3.3,7.4v2.7
					c0,5.5,4.5,10,10,10h50.5c3,0,5.8-1.3,7.7-3.6c8.3-9.9,15.8-20.2,22.5-30.4c6.8-10.6,12.7-22,17.4-33.9
					c4.3-10.9,7.9-23.1,10.6-36.2c2.7-13.2,4.1-28,4.1-44.1c0-14.7-1.3-29.1-3.9-42.8c-2.6-13.7-6.3-26.4-10.9-37.9
					c-4.9-12.1-10.8-23.5-17.6-34c-6.6-10.2-14.1-20.3-22.2-30c-1.9-2.3-4.7-3.6-7.7-3.6H638.3z"/>
				<path class="st1" d="M688.7-374.2c0.3,0,0.6-0.1,0.8-0.4c8.1-9.7,15.4-19.6,21.8-29.6c6.6-10.1,12.1-20.9,16.6-32.3
					c4.2-10.5,7.5-22,10.1-34.7c2.6-12.6,3.9-26.8,3.9-42.3c0-14.2-1.3-28-3.8-41.1c-2.5-13.2-6-25.2-10.4-36.2
					c-4.7-11.6-10.3-22.5-16.8-32.6c-6.4-10-13.6-19.7-21.5-29.1c-0.2-0.2-0.5-0.4-0.8-0.4h-50.5c-0.6,0-1,0.4-1,1v2.7
					c0,0.3,0.1,0.5,0.3,0.7c7.4,6.6,14.7,14.4,21.7,23.3c7.2,9.1,13.5,19.2,19.1,30.4c5.9,11.7,10.5,24.1,13.9,37.2
					c3.4,13.1,5.2,27.7,5.2,43.9c0,15.5-1.8,30.1-5.3,43.7c-3.5,13.7-8.1,26.1-13.8,37.4c-5.9,11.7-12.4,21.9-19.3,30.6
					c-6.8,8.6-14,16.3-21.5,23.1c-0.2,0.2-0.3,0.5-0.3,0.7v2.7c0,0.6,0.4,1,1,1H688.7 M688.7-356.2h-50.5c-10.5,0-19-8.5-19-19v-2.7
					c0-5.4,2.3-10.5,6.2-14.1c6.8-6.1,13.3-13.2,19.5-21c6.1-7.7,12-17,17.4-27.6c5.1-10,9.2-21.4,12.4-33.7
					c3.1-12.1,4.7-25.3,4.7-39.2c0-14.5-1.5-27.7-4.6-39.3c-3.1-11.9-7.4-23.2-12.6-33.7l0,0l0,0c-5-10.1-10.7-19.2-17.1-27.3
					c-6.4-8.1-13-15.2-19.6-21.1c-4-3.6-6.3-8.8-6.3-14.2v-2.7c0-10.5,8.5-19,19-19h50.5c5.6,0,10.9,2.5,14.6,6.8
					c8.3,10,16,20.3,22.8,30.9c7.1,11,13.3,22.9,18.4,35.5c4.9,12,8.7,25.3,11.4,39.6c2.7,14.2,4.1,29.2,4.1,44.5
					c0,16.7-1.4,32.2-4.3,45.9c-2.8,13.6-6.5,26.3-11,37.7c-4.9,12.5-11.1,24.4-18.2,35.5c-6.9,10.6-14.6,21.1-23.1,31.3
					C699.7-358.7,694.4-356.2,688.7-356.2L688.7-356.2z"/>
			</g>
		</g>
	</g>
</symbol>
<symbol  id="GC_Stats_1_" viewBox="0 -1000 890 1000">
	<path class="st18" d="M445-981c-12,0-23.8,3.2-34.1,9.1L53.2-765.5C32.1-753.3,19-730.7,19-706.4v412.8c0,24.3,13.1,46.9,34.1,59.1
		L410.9-28.2c10.4,6,22.2,9.1,34.1,9.1c12,0,23.8-3.2,34.1-9.1l357.7-206.4c21.1-12.1,34.1-34.8,34.1-59.1v-412.8
		c0-24.3-13.1-46.9-34.1-59.1L479.1-971.8C468.8-977.8,457-981,445-981z"/>
	<path class="st19" d="M445-38c8.5,0,17-2.2,24.6-6.6L827.3-251c15.2-8.8,24.6-25,24.6-42.6v-412.8c0-17.6-9.4-33.8-24.6-42.6
		L469.6-955.4c-7.6-4.4-16.1-6.6-24.6-6.6c-8.5,0-17,2.2-24.6,6.6L62.7-749C47.4-740.2,38-724,38-706.4v412.8
		c0,17.6,9.4,33.8,24.6,42.6L420.4-44.6C428-40.2,436.5-38,445-38 M445,0c-15.3,0-30.4-4-43.6-11.7L43.6-218.1
		C16.7-233.6,0-262.5,0-293.6v-412.8c0-31.1,16.7-60,43.6-75.5l357.7-206.4c13.3-7.6,28.3-11.7,43.6-11.7c15.3,0,30.4,4,43.6,11.7
		l357.7,206.4c26.9,15.5,43.6,44.5,43.6,75.5v412.8c0,31.1-16.7,60-43.6,75.5L488.6-11.7C475.4-4,460.3,0,445,0L445,0z"/>
	<path class="st20" d="M520-387l14.5-90.6L441-706.3l206.9,228.7L588.1-387H293.8L234-477.6L441-706.3l-93.6,228.7l14.5,90.6H520
		l14.5-90.6L441-706.3l-93.6,228.7l14.5,90.6C414.3-387,467.6-387,520-387z"/>
	<line class="st20" x1="647.9" y1="-477.6" x2="234" y2="-477.6"/>
	<g>
		<g>
			<g>
				<path class="st21" d="M438.3-796.9c0.3,0,0.6,0,0.9,0c164.3,0,297.5,133.1,297.5,297.3c0,83.3-34.3,158.6-89.6,212.6"/>
				<g>
					<polygon class="st19" points="598.9,-351.7 710.6,-237.3 597.6,-238.7 					"/>
				</g>
			</g>
		</g>
		<g>
			<g>
				<path class="st21" d="M438.3-202.3c-163.9-0.5-296.6-133.4-296.6-297.3c0-80.9,32.3-154.2,84.8-207.8"/>
				<g>
					<polygon class="st19" points="276,-643.9 161.7,-755.7 274.8,-756.9 					"/>
				</g>
			</g>
		</g>
	</g>
</symbol>
<symbol  id="Scrimp_1_" viewBox="0 -1000 890 1000">
	<path class="st22" d="M445-981c-12,0-23.8,3.2-34.1,9.1L53.2-765.5C32.1-753.3,19-730.7,19-706.4v412.8c0,24.3,13.1,46.9,34.1,59.1
		L410.9-28.2c10.4,6,22.2,9.1,34.1,9.1c12,0,23.8-3.2,34.1-9.1l357.7-206.4c21.1-12.1,34.1-34.8,34.1-59.1v-412.8
		c0-24.3-13.1-46.9-34.1-59.1L479.1-971.8C468.8-977.8,457-981,445-981z"/>
	<path class="st23" d="M445-38c8.5,0,17-2.2,24.6-6.6L827.3-251c15.2-8.8,24.6-25,24.6-42.6v-412.8c0-17.6-9.4-33.8-24.6-42.6
		L469.6-955.4c-7.6-4.4-16.1-6.6-24.6-6.6c-8.5,0-17,2.2-24.6,6.6L62.7-749C47.4-740.2,38-724,38-706.4v412.8
		c0,17.6,9.4,33.8,24.6,42.6L420.4-44.6C428-40.2,436.5-38,445-38 M445,0c-15.3,0-30.4-4-43.6-11.7L43.6-218.1
		C16.7-233.6,0-262.5,0-293.6v-412.8c0-31.1,16.7-60,43.6-75.5l357.7-206.4c13.3-7.6,28.3-11.7,43.6-11.7c15.3,0,30.4,4,43.6,11.7
		l357.7,206.4c26.9,15.5,43.6,44.5,43.6,75.5v412.8c0,31.1-16.7,60-43.6,75.5L488.6-11.7C475.4-4,460.3,0,445,0L445,0z"/>
	<polygon class="st17" points="126.3,-537.4 594.9,-232.8 569.8,-790.3 406,-699.5 315.9,-725.4 294,-637.7 	"/>
	<path class="st23" d="M601.6-224.5c-1.6,0.9-3.4,1.4-5.2,1.4c-2,0-4-0.6-5.7-1.7L119.3-530c-3-2-4.8-5.4-4.8-9
		c0.1-3.6,2.1-7,5.2-8.8l162.6-93.6l20.9-85.8c0.7-2.8,2.5-5.2,4.9-6.6c1.6-0.9,3.4-1.4,5.2-1.4c0.9,0,1.8,0.1,3,0.4l84.8,25
		l162.5-93.5c1.6-0.9,3.4-1.4,5.2-1.4c0.9,0,1.8,0.1,2.7,0.4c0.8,0.2,1.6,0.5,2.3,0.9c3.2,1.7,5.2,5,5.4,8.6l27.2,552.6l0.4,8.1
		C607-230.1,605-226.4,601.6-224.5z M144.9-538.3L554.6-273L288.6-621L144.9-538.3z M394.7-689.9l-73.8-21.8L302.7-637l248.9,325.8
		L394.7-689.9z M559.2-776.7L415.5-694l167.7,404.5L559.2-776.7z"/>
</symbol>
<symbol  id="Terra_1_" viewBox="0 -1000 890 1000">
	<path class="st0" d="M445-981c-12,0-23.8,3.2-34.1,9.1L53.2-765.5C32.1-753.3,19-730.7,19-706.4v412.8c0,24.3,13.1,46.9,34.1,59.1
		L410.9-28.2c10.4,6,22.2,9.1,34.1,9.1c12,0,23.8-3.2,34.1-9.1l357.7-206.4c21.1-12.1,34.1-34.8,34.1-59.1v-412.8
		c0-24.3-13.1-46.9-34.1-59.1L479.1-971.8C468.8-977.8,457-981,445-981z"/>
	<path class="st1" d="M445-38c8.5,0,17-2.2,24.6-6.6L827.3-251c15.2-8.8,24.6-25,24.6-42.6v-412.8c0-17.6-9.4-33.8-24.6-42.6
		L469.6-955.4c-7.6-4.4-16.1-6.6-24.6-6.6c-8.5,0-17,2.2-24.6,6.6L62.7-749C47.4-740.2,38-724,38-706.4v412.8
		c0,17.6,9.4,33.8,24.6,42.6L420.4-44.6C428-40.2,436.5-38,445-38 M445,0c-15.3,0-30.4-4-43.6-11.7L43.6-218.1
		C16.7-233.6,0-262.5,0-293.6v-412.8c0-31.1,16.7-60,43.6-75.5l357.7-206.4c13.3-7.6,28.3-11.7,43.6-11.7c15.3,0,30.4,4,43.6,11.7
		l357.7,206.4c26.9,15.5,43.6,44.5,43.6,75.5v412.8c0,31.1-16.7,60-43.6,75.5L488.6-11.7C475.4-4,460.3,0,445,0L445,0z"/>
	<pattern  id="SVGID_10_" xlink:href="#New_Pattern_Swatch_3" patternTransform="matrix(6.2683 0 0 6.264 40681.1172 43422.9805)">
	</pattern>
	<ellipse class="st24" cx="664.4" cy="-319.3" rx="59.5" ry="59.5"/>
	<ellipse class="st25" cx="442.7" cy="-510.1" rx="192" ry="191.9"/>
	<g>
		<path class="st17" d="M172.6-310.3c-7.4-8.5-16.4-13.9-25.9-16.2c9.5-2.4,18.6-7.7,26-16.2c7.4-8.5,12.1-18.8,14.2-29.8
			c2.1,10.9,6.8,21.3,14.1,29.7c7.4,8.5,16.5,13.9,26,16.2l0,0c-9.5,2.4-18.6,7.7-26,16.2s-12.1,18.9-14.2,29.8l0,0
			C184.7-291.4,180-301.8,172.6-310.3z"/>
		<pattern  id="SVGID_11_" xlink:href="#New_Pattern_Swatch_3" patternTransform="matrix(6.2683 0 0 6.264 40681.1172 43422.9805)">
		</pattern>
		<path class="st26" d="M186.8-303.9c2.3-4.2,5-8.1,8.1-11.6c3.7-4.3,7.9-8,12.5-11c-4.6-3-8.8-6.7-12.5-11
			c-3.1-3.5-5.8-7.4-8.1-11.6c-2.3,4.2-5,8.1-8.1,11.6c-3.7,4.3-7.9,8-12.5,11c4.5,3,8.7,6.7,12.4,10.9
			C181.7-312,184.5-308.1,186.8-303.9 M186.8-280.5c-2-10.9-6.8-21.3-14.2-29.8c-7.4-8.5-16.4-13.9-25.9-16.2
			c9.5-2.4,18.6-7.7,26-16.2c7.4-8.5,12.1-18.8,14.2-29.8c2.1,10.9,6.8,21.3,14.1,29.7c7.4,8.5,16.5,13.9,26,16.2l0,0
			c-9.5,2.4-18.6,7.7-26,16.2S188.9-291.4,186.8-280.5L186.8-280.5L186.8-280.5z"/>
	</g>
	<g>
		<path class="st17" d="M684.5-681.1c-7.4-8.5-16.4-13.9-25.9-16.2c9.5-2.4,18.6-7.7,26-16.2s12.1-18.8,14.2-29.8
			c2.1,10.9,6.8,21.3,14.1,29.7c7.4,8.5,16.5,13.9,26,16.2l0,0c-9.5,2.4-18.6,7.7-26,16.2c-7.4,8.5-12.1,18.9-14.2,29.8l0,0
			C696.6-662.2,691.9-672.6,684.5-681.1z"/>
		<pattern  id="SVGID_12_" xlink:href="#New_Pattern_Swatch_3" patternTransform="matrix(6.2683 0 0 6.264 40681.1172 43422.9805)">
		</pattern>
		<path class="st27" d="M698.6-674.7c2.3-4.2,5-8.1,8.1-11.6c3.7-4.3,7.9-8,12.5-11c-4.6-3-8.8-6.7-12.5-11
			c-3.1-3.5-5.8-7.4-8.1-11.6c-2.3,4.2-5,8.1-8.1,11.6c-3.7,4.3-7.9,8-12.5,11c4.5,3,8.7,6.7,12.4,10.9
			C693.6-682.8,696.3-678.8,698.6-674.7 M698.6-651.2c-2-10.9-6.8-21.3-14.2-29.8c-7.4-8.5-16.4-13.9-25.9-16.2
			c9.5-2.4,18.6-7.7,26-16.2c7.4-8.5,12.1-18.8,14.2-29.8c2.1,10.9,6.8,21.3,14.1,29.7c7.4,8.5,16.5,13.9,26,16.2l0,0
			c-9.5,2.4-18.6,7.7-26,16.2S700.7-662.2,698.6-651.2L698.6-651.2L698.6-651.2z"/>
	</g>
	<path class="st28" d="M278.2-609.1c-7.4-10.7-14.3-21-20.4-31.1c-35.5-58.2-33.5-81.2-30-84.7c1.1-1.1,3.9-1.7,7.6-1.7
		c9.4,0,38,4.5,99.8,46.3c2.8,1.9,5.6,3.8,8.5,5.8C316.9-658.4,294.4-635.9,278.2-609.1z"/>
	<path class="st28" d="M657.7-295.3c-1.1,1.1-3.9,1.7-7.6,1.7c-9.4,0-38-4.5-99.8-46.3c-2.8-1.9-5.6-3.8-8.5-5.8
		c26.8-16.2,49.3-38.6,65.4-65.4c7.4,10.7,14.3,21,20.4,31.1C663.2-321.9,661.2-298.8,657.7-295.3z"/>
	<pattern  id="SVGID_13_" xlink:href="#New_Pattern_Swatch_3" patternTransform="matrix(6.2683 0 0 6.264 40681.1172 43422.9805)">
	</pattern>
	<path class="st29" d="M616.1-427.4c-2.7,5.6-5.6,11-8.8,16.3c-16.2,26.8-38.7,49.3-65.4,65.4c-5.3,3.2-10.7,6.1-16.3,8.8
		c-25.1,12-53.1,18.7-82.8,18.7c-106.1,0-192-85.9-192-191.9c0-29.6,6.7-57.7,18.7-82.7c2.7-5.6,5.6-11,8.8-16.3
		c16.2-26.8,38.7-49.3,65.4-65.4c5.3-3.2,10.7-6.1,16.3-8.8c25.1-12,53.1-18.7,82.8-18.7c106.1,0,192,85.9,192,191.9
		C634.8-480.5,628-452.4,616.1-427.4z"/>
	<pattern  id="SVGID_14_" xlink:href="#New_Pattern_Swatch_3" patternTransform="matrix(6.2683 0 0 6.264 40686.6875 43423.0508)">
	</pattern>
	<path class="st30" d="M654.6-326c-4.5-13-12.7-30.7-26.9-54c-6.1-10-12.9-20.4-20.4-31.1c-31.2-44.6-73.3-94-121.4-142.1
		c-47.4-47.4-97.5-90.1-142.2-121.3c-2.8-2-5.7-3.9-8.5-5.8c-61.8-41.8-90.4-46.3-99.8-46.3c-3.6,0-6.5,0.6-7.6,1.7
		c-3.5,3.5-5.5,26.6,30,84.7c6.1,10,12.9,20.4,20.4,31.1c-3.2,5.3-6.1,10.7-8.8,16.3c-49.7-69.4-72.2-125-53.4-143.8
		c4.5-4.5,11-6.6,19.3-6.6c26.7,0,71.7,22.1,124.6,59.9c42.5,30.4,90.1,70.9,137.6,118.4c47.5,47.5,88.1,95.1,118.5,137.5
		c26.7,37.3,45.6,70.7,54.4,96.4C666-326.6,660.4-325.1,654.6-326z"/>
</symbol>
<symbol  id="jwala_1_" viewBox="0 -1000 890 1000">
	<g>
		<path class="st11" d="M445-981c-12,0-23.8,3.2-34.1,9.1L53.2-765.5C32.1-753.3,19-730.7,19-706.4v412.8
			c0,24.3,13.1,46.9,34.1,59.1L410.9-28.2c10.4,6,22.2,9.1,34.1,9.1c12,0,23.8-3.2,34.1-9.1l357.7-206.4
			c21.1-12.1,34.1-34.8,34.1-59.1v-412.8c0-24.3-13.1-46.9-34.1-59.1L479.1-971.8C468.8-977.8,457-981,445-981z"/>
		<path class="st12" d="M445-38c8.5,0,17-2.2,24.6-6.6L827.3-251c15.2-8.8,24.6-25,24.6-42.6v-412.8c0-17.6-9.4-33.8-24.6-42.6
			L469.6-955.4c-7.6-4.4-16.1-6.6-24.6-6.6c-8.5,0-17,2.2-24.6,6.6L62.7-749C47.4-740.2,38-724,38-706.4v412.8
			c0,17.6,9.4,33.8,24.6,42.6L420.4-44.6C428-40.2,436.5-38,445-38 M445,0c-15.3,0-30.4-4-43.6-11.7L43.6-218.1
			C16.7-233.6,0-262.5,0-293.6v-412.8c0-31.1,16.7-60,43.6-75.5l357.7-206.4c13.3-7.6,28.3-11.7,43.6-11.7c15.3,0,30.4,4,43.6,11.7
			l357.7,206.4c26.9,15.5,43.6,44.5,43.6,75.5v412.8c0,31.1-16.7,60-43.6,75.5L488.6-11.7C475.4-4,460.3,0,445,0L445,0z"/>
	</g>
	<path class="st13" d="M649.6-440.8c-3.8-21.7-15-42.9-26.2-55c-4.2,115-50.9,178.9-78.9,217c-1.2-13.3-2-22.5-3.2-35.6
		C506.2-234.1,433.1-193,392.5-169.1c29.2-93.3,7.1-187.9-30-239.1c-7.8,21.3-30.3,55.9-45.6,71.4c6.9-85.6-70.2-117.7-74.8-214
		c-9.1,15.2-17.7,30.8-21.5,54c-59.4-124.4,23.8-279.4,127.7-304.6c-11.7,43.6,17.2,78.7,29.9,96.3c35.5,49.1,89.5,52.3,129.6,7
		c25.5-28.8,52.9-58.5,46-103.8C741.2-706.9,711.4-507.1,649.6-440.8z M341.3-701.1c-18.9-7.9-43.5,7.7-54.9,35
		c-11.5,27.3-5.5,55.8,13.4,63.8c18.9,7.9,43.5-7.7,54.9-35C366.2-664.6,360.1-693.2,341.3-701.1z M401.6-620.7
		c-22.5-4.9-46.2,16.2-52.9,47.1s6,59.9,28.5,64.8c22.5,4.9,46.2-16.2,52.9-47.1C436.9-586.8,424.1-615.8,401.6-620.7z M486.7-620.7
		c-22.5,4.9-35.3,33.9-28.5,64.8c6.7,30.9,30.4,52,52.9,47.1c22.5-4.9,35.3-33.9,28.5-64.8S509.2-625.6,486.7-620.7z M604-660.9
		c-11.5-27.3-36.1-43-54.9-35c-18.9,7.9-24.9,36.5-13.4,63.8c11.5,27.3,36.1,43,54.9,35C609.5-605.1,615.5-633.6,604-660.9z"/>
</symbol>
<pattern  y="1099" width="6.1" height="6.1" patternUnits="userSpaceOnUse" id="New_Pattern_Swatch_3" viewBox="0 -6.1 6.1 6.1" style="overflow:visible;">
	<g>
		<rect y="-6.1" class="st28" width="6.1" height="6.1"/>
		<rect y="-6.1" class="st1" width="6.1" height="6.1"/>
	</g>
</pattern>
<g id="Concepts" class="st31">
	<g id="JWALA">
	</g>
	<g id="Knife_Tar">
	</g>
</g>
<g id="Complete">
	<g id="Terra" class="st31">
		
			<use xlink:href="#Terra_1_"  width="890" height="1000" y="-1000" transform="matrix(9.800000e-02 0 0 -9.800000e-02 6.39 1)" style="display:inline;overflow:visible;"/>
	</g>
	<g id="Scrimp" class="st31">
		
			<use xlink:href="#Scrimp_1_"  width="890" height="1000" y="-1000" transform="matrix(9.800000e-02 0 0 -9.800000e-02 6.39 1)" style="display:inline;overflow:visible;"/>
	</g>
	<g id="jwala" class="st31">
		
			<use xlink:href="#jwala_1_"  width="890" height="1000" y="-1000" transform="matrix(9.800000e-02 0 0 -9.800000e-02 6.39 1)" style="display:inline;overflow:visible;"/>
	</g>
	<g id="GC_Stats" class="st31">
		
			<use xlink:href="#GC_Stats_1_"  width="890" height="1000" y="-1000" transform="matrix(9.800000e-02 0 0 -9.800000e-02 6.39 1)" style="display:inline;overflow:visible;"/>
	</g>
	<g id="Clara" class="st31">
		
			<use xlink:href="#Clara_1_"  width="890" height="1000" y="-1000" transform="matrix(9.800000e-02 0 0 -9.800000e-02 6.39 1)" style="display:inline;overflow:visible;"/>
	</g>
	<g id="Carbon">
		<g>
			<g>
				<path class="st33" d="M50,97.1c-1.2,0-2.3-0.3-3.3-0.9L11.6,76c-2.1-1.2-3.3-3.4-3.3-5.8V29.8c0-2.4,1.3-4.6,3.3-5.8L46.7,3.8
					c1-0.6,2.2-0.9,3.3-0.9c1.2,0,2.3,0.3,3.3,0.9L88.4,24c2.1,1.2,3.3,3.4,3.3,5.8v40.5c0,2.4-1.3,4.6-3.3,5.8L53.3,96.2
					C52.3,96.8,51.2,97.1,50,97.1z"/>
				<path class="st34" d="M50,4.7c0.8,0,1.7,0.2,2.4,0.6l35.1,20.2c1.5,0.9,2.4,2.5,2.4,4.2v40.5c0,1.7-0.9,3.3-2.4,4.2L52.4,94.6
					c-0.7,0.4-1.6,0.6-2.4,0.6c-0.8,0-1.7-0.2-2.4-0.6L12.5,74.4c-1.5-0.9-2.4-2.5-2.4-4.2V29.8c0-1.7,0.9-3.3,2.4-4.2L47.6,5.4
					C48.3,4.9,49.2,4.7,50,4.7 M50,1c-1.5,0-3,0.4-4.3,1.1L10.7,22.4c-2.6,1.5-4.3,4.4-4.3,7.4v40.5c0,3,1.6,5.9,4.3,7.4l35.1,20.2
					C47,98.6,48.5,99,50,99c1.5,0,3-0.4,4.3-1.1l35.1-20.2c2.6-1.5,4.3-4.4,4.3-7.4V29.8c0-3-1.6-5.9-4.3-7.4L54.3,2.1
					C53,1.4,51.5,1,50,1L50,1z"/>
				<g>
					<rect x="42.4" y="37.7" class="st39" width="13.5" height="32.5"/>
					<circle class="st34" cx="49.1" cy="48.2" r="2.9"/>
				</g>
				<g>
					<rect x="60.9" y="28.8" class="st40" width="13.5" height="41.5"/>
					<circle class="st34" cx="67.6" cy="55.3" r="2.9"/>
				</g>
				<g>
					<rect x="23.8" y="49.4" class="st41" width="13.5" height="20.9"/>
					<circle class="st34" cx="30.6" cy="61.2" r="2.9"/>
				</g>
				<polyline class="st42" points="30.5,61.2 49.2,48.1 67.6,55.3 				"/>
			</g>
		</g>
	</g>
	<g id="Canadarm" class="st31">
		
			<use xlink:href="#Canadarm_1_"  width="890" height="1000" y="-1000" transform="matrix(9.800000e-02 0 0 -9.800000e-02 6.39 1)" style="display:inline;overflow:visible;"/>
	</g>
	<g id="Bunsen" class="st31">
		
			<use xlink:href="#Bunson"  width="890" height="1000" id="Bunsen_3_" y="-1000" transform="matrix(9.800000e-02 0 0 -9.800000e-02 6.39 1)" style="display:inline;overflow:visible;"/>
	</g>
	<g id="Beadledom" class="st31">
		
			<use xlink:href="#Beadledom_1_"  width="890" height="1000" y="-1000" transform="matrix(9.800000e-02 0 0 -9.800000e-02 6.39 1)" style="display:inline;overflow:visible;"/>
	</g>
</g>
<g id="_x5F_COPY_ME" class="st31">
	
		<use xlink:href="#Terra_1_"  width="890" height="1000" y="-1000" transform="matrix(9.800000e-02 0 0 -9.800000e-02 6.39 1)" style="display:inline;overflow:visible;"/>
</g>
<g id="Template">
	<g id="Grey">
	</g>
	<g id="Red">
	</g>
	<g id="Blue">
	</g>
	<g id="Purple">
	</g>
</g>
<g id="Instructions">
</g>
</svg>
